# xmcd CD database file
#
# Track frame offsets:
#	150
#	19000
#	32985
#	47910
#	60320
#	76522
#	95540
#	110990
#	127630
#	140662
#	153420
#	170100
#
# Disc length: 2469 seconds
#
# Revision: 0
# Processed by: cddbd v1.4PL0 Copyright (c) Steve Scherf et al.
# Submitted via: CDex 1.51
#
DISCID=9909a30c
DTITLE=The Wells - where Anything Goes
DYEAR=1999
DGENRE=Country
TTITLE0=Working Through
TTITLE1=Auburn Baretta
TTITLE2=Land On The Hill
TTITLE3=Where Anything Goes
TTITLE4=There
TTITLE5=Born This Way
TTITLE6=Cannon
TTITLE7=Shadows On My Shoes
TTITLE8=If You Knew
TTITLE9=I Know
TTITLE10=This Time
TTITLE11=Good These Days
EXTD=YEAR: 1999
EXTT0=
EXTT1=
EXTT2=
EXTT3=
EXTT4=
EXTT5=
EXTT6=
EXTT7=
EXTT8=
EXTT9=
EXTT10=
EXTT11=
PLAYORDER=
